# Blender v2.75 (sub 0) OBJ File: ''
# www.blender.org
mtllib Coin.mtl
o Torus.001
v 0.241148 0.000000 0.000000
v 0.174447 0.000000 0.066700
v 0.107747 0.000000 0.000000
v 0.174447 -0.000000 -0.066700
v 0.217267 0.104630 0.000000
v 0.157172 0.075690 0.066700
v 0.097077 0.046750 0.000000
v 0.157172 0.075690 -0.066700
v 0.150353 0.188537 0.000000
v 0.108766 0.136388 0.066700
v 0.067179 0.084240 0.000000
v 0.108766 0.136388 -0.066700
v 0.053660 0.235102 -0.000000
v 0.038818 0.170074 0.066700
v 0.023976 0.105045 0.000000
v 0.038818 0.170074 -0.066700
v -0.053660 0.235102 -0.000000
v -0.038818 0.170074 0.066700
v -0.023976 0.105045 0.000000
v -0.038818 0.170074 -0.066700
v -0.150353 0.188537 0.000000
v -0.108766 0.136388 0.066700
v -0.067179 0.084240 0.000000
v -0.108766 0.136388 -0.066700
v -0.217267 0.104630 0.000000
v -0.157172 0.075690 0.066700
v -0.097077 0.046750 0.000000
v -0.157172 0.075690 -0.066700
v -0.241148 0.000000 0.000000
v -0.174447 0.000000 0.066700
v -0.107747 0.000000 0.000000
v -0.174447 0.000000 -0.066700
v -0.217267 -0.104630 0.000000
v -0.157172 -0.075690 0.066700
v -0.097077 -0.046750 0.000000
v -0.157172 -0.075690 -0.066700
v -0.150353 -0.188537 0.000000
v -0.108766 -0.136388 0.066700
v -0.067179 -0.084240 0.000000
v -0.108766 -0.136388 -0.066700
v -0.053660 -0.235102 0.000000
v -0.038818 -0.170074 0.066700
v -0.023976 -0.105045 0.000000
v -0.038818 -0.170074 -0.066700
v 0.053660 -0.235102 0.000000
v 0.038818 -0.170074 0.066701
v 0.023976 -0.105045 0.000000
v 0.038818 -0.170074 -0.066700
v 0.150353 -0.188537 0.000000
v 0.108766 -0.136389 0.066700
v 0.067179 -0.084240 0.000000
v 0.108766 -0.136389 -0.066700
v 0.217267 -0.104630 0.000000
v 0.157172 -0.075690 0.066700
v 0.097077 -0.046750 0.000000
v 0.157172 -0.075690 -0.066700
vt 0.788934 0.109234
vt 0.885963 0.159268
vt 0.857798 0.243421
vt 0.195629 0.743421
vt 0.223794 0.659267
vt 0.320823 0.709301
vt 0.107798 0.818969
vt 0.125194 0.870946
vt 0.028165 0.920979
vt 0.500000 0.354682
vt 0.607798 0.336825
vt 0.635963 0.420979
vt 0.859090 0.028731
vt 0.936714 0.101031
vt 0.274545 0.601031
vt 0.352169 0.673331
vt 0.156541 0.906916
vt 0.078916 0.979216
vt 0.686714 0.479216
vt 0.609090 0.551516
vt 0.538934 0.471012
vt 0.946573 0.000000
vt 1.000000 0.080247
vt 0.337830 0.580247
vt 0.391258 0.660494
vt 0.195629 0.919753
vt 0.142202 1.000000
vt 0.750000 0.500000
vt 0.696573 0.580247
vt 0.359090 0.551516
vt 0.436714 0.479216
vt 0.500000 0.500000
vt 0.774545 0.979216
vt 0.852169 0.906916
vt 0.891258 0.919753
vt 0.500000 0.919753
vt 0.539088 0.906916
vt 0.616713 0.979216
vt 0.063286 0.479216
vt 0.140910 0.551516
vt 0.053427 0.580247
vt 0.288934 0.471012
vt 0.385963 0.420979
vt 0.723794 0.920979
vt 0.820823 0.870946
vt 0.570435 0.870946
vt 0.667464 0.920979
vt 0.114037 0.420979
vt 0.211066 0.471012
vt 0.250000 0.354682
vt 0.357798 0.336825
vt 0.695629 0.836825
vt 0.803427 0.818969
vt 0.587831 0.818969
vt 0.142202 0.336825
vt 0.250000 0.225565
vt 0.357798 0.243421
vt 0.695629 0.743421
vt 0.803427 0.761278
vt 0.587831 0.761278
vt 0.142202 0.243422
vt 0.288934 0.109235
vt 0.385963 0.159268
vt 0.723794 0.659268
vt 0.820823 0.709301
vt 0.570435 0.709301
vt 0.667464 0.659268
vt 0.114037 0.159268
vt 0.211066 0.109234
vt 0.359090 0.028731
vt 0.436714 0.101031
vt 0.774545 0.601031
vt 0.852169 0.673331
vt 0.539088 0.673331
vt 0.616713 0.601031
vt 0.063286 0.101031
vt 0.140910 0.028731
vt 0.446573 0.000000
vt 0.500000 0.080247
vt 0.837831 0.580247
vt 0.891258 0.660494
vt 0.500000 0.660494
vt 0.553427 0.580247
vt 0.000000 0.080247
vt 0.053427 0.000000
vt 0.859090 0.551515
vt 0.936714 0.479216
vt 1.000000 0.500000
vt 0.274545 0.979216
vt 0.352169 0.906916
vt 0.391258 0.919753
vt 0.156541 0.673331
vt 0.078916 0.601031
vt 0.142202 0.580247
vt 0.686714 0.101031
vt 0.609090 0.028731
vt 0.696573 0.000000
vt 0.788934 0.471012
vt 0.885963 0.420979
vt 0.223794 0.920979
vt 0.320823 0.870946
vt 0.125194 0.709301
vt 0.028165 0.659267
vt 0.635963 0.159267
vt 0.538934 0.109234
vt 0.750000 0.354682
vt 0.857798 0.336825
vt 0.195629 0.836825
vt 0.303427 0.818969
vt 0.107798 0.761278
vt 0.000000 0.743421
vt 0.607798 0.243421
vt 0.500000 0.225565
vt 0.750000 0.225565
vt 0.303427 0.761278
vt 0.000000 0.836825
vt 0.446573 0.580247
vt 0.837830 1.000000
vt 0.553427 1.000000
vt 0.000000 0.500000
vt 0.946573 0.580247
vt 0.337830 1.000000
vt 0.195629 0.660494
vt 0.750000 0.080247
vn 0.698100 0.159300 0.698100
vn -0.698100 -0.159300 0.698100
vn -0.698100 -0.159300 -0.698100
vn 0.698100 0.159300 -0.698100
vn 0.559800 0.446400 0.698100
vn -0.559800 -0.446400 0.698100
vn -0.559800 -0.446400 -0.698100
vn 0.559800 0.446400 -0.698100
vn 0.310700 0.645100 0.698100
vn -0.310700 -0.645100 0.698100
vn -0.310700 -0.645100 -0.698100
vn 0.310700 0.645100 -0.698100
vn -0.000000 0.716000 0.698100
vn 0.000000 -0.716000 0.698100
vn 0.000000 -0.716000 -0.698100
vn 0.000000 0.716000 -0.698100
vn -0.310700 0.645100 0.698100
vn 0.310700 -0.645100 0.698100
vn 0.310700 -0.645100 -0.698100
vn -0.310700 0.645100 -0.698100
vn -0.559800 0.446400 0.698100
vn 0.559800 -0.446400 0.698100
vn 0.559800 -0.446400 -0.698100
vn -0.559800 0.446400 -0.698100
vn -0.698100 0.159300 0.698100
vn 0.698100 -0.159300 0.698100
vn 0.698100 -0.159300 -0.698100
vn -0.698100 0.159300 -0.698100
usemtl None
s off
f 5/1/1 6/2/1 2/3/1
f 2/4/2 6/5/2 7/6/2
f 3/7/3 7/8/3 8/9/3
f 1/10/4 4/11/4 8/12/4
f 9/13/5 10/14/5 6/2/5
f 6/5/6 10/15/6 11/16/6
f 11/17/7 12/18/7 8/9/7
f 12/19/8 9/20/8 5/21/8
f 13/22/9 14/23/9 10/14/9
f 14/24/10 15/25/10 11/16/10
f 15/26/11 16/27/11 12/18/11
f 12/19/12 16/28/12 13/29/12
f 17/30/13 18/31/13 14/32/13
f 18/33/14 19/34/14 15/35/14
f 15/36/15 19/37/15 20/38/15
f 20/39/16 17/40/16 13/41/16
f 21/42/17 22/43/17 18/31/17
f 22/44/18 23/45/18 19/34/18
f 23/46/19 24/47/19 20/38/19
f 24/48/20 21/49/20 17/40/20
f 21/42/21 25/50/21 26/51/21
f 22/44/22 26/52/22 27/53/22
f 23/46/23 27/54/23 28/52/23
f 24/48/24 28/55/24 25/50/24
f 25/50/25 29/56/25 30/57/25
f 30/58/26 31/59/26 27/53/26
f 31/60/27 32/58/27 28/52/27
f 32/61/28 29/56/28 25/50/28
f 33/62/2 34/63/2 30/57/2
f 34/64/1 35/65/1 31/59/1
f 35/66/4 36/67/4 32/58/4
f 36/68/3 33/69/3 29/56/3
f 33/62/6 37/70/6 38/71/6
f 34/64/5 38/72/5 39/73/5
f 35/66/8 39/74/8 40/75/8
f 40/76/7 37/77/7 33/69/7
f 41/78/10 42/79/10 38/71/10
f 38/72/9 42/80/9 43/81/9
f 43/82/12 44/83/12 40/75/12
f 44/84/11 41/85/11 37/77/11
f 45/86/14 46/87/14 42/88/14
f 46/89/13 47/90/13 43/91/13
f 47/92/16 48/93/16 44/94/16
f 48/95/15 45/96/15 41/97/15
f 45/86/18 49/98/18 50/99/18
f 50/100/17 51/101/17 47/90/17
f 47/92/20 51/102/20 52/103/20
f 48/95/19 52/104/19 49/105/19
f 53/106/22 54/107/22 50/99/22
f 54/108/21 55/109/21 51/101/21
f 55/110/24 56/111/24 52/103/24
f 56/112/23 53/113/23 49/105/23
f 1/114/26 2/3/26 54/107/26
f 54/108/25 2/4/25 3/115/25
f 3/7/28 4/116/28 56/111/28
f 4/11/27 1/10/27 53/113/27
f 1/114/1 5/1/1 2/3/1
f 3/115/2 2/4/2 7/6/2
f 4/116/3 3/7/3 8/9/3
f 5/21/4 1/10/4 8/12/4
f 5/1/5 9/13/5 6/2/5
f 7/6/6 6/5/6 11/16/6
f 7/8/7 11/17/7 8/9/7
f 8/12/8 12/19/8 5/21/8
f 9/13/9 13/22/9 10/14/9
f 10/15/10 14/24/10 11/16/10
f 11/17/11 15/26/11 12/18/11
f 9/20/12 12/19/12 13/29/12
f 13/117/13 17/30/13 14/32/13
f 14/118/14 18/33/14 15/35/14
f 16/119/15 15/36/15 20/38/15
f 16/120/16 20/39/16 13/41/16
f 17/30/17 21/42/17 18/31/17
f 18/33/18 22/44/18 19/34/18
f 19/37/19 23/46/19 20/38/19
f 20/39/20 24/48/20 17/40/20
f 22/43/21 21/42/21 26/51/21
f 23/45/22 22/44/22 27/53/22
f 24/47/23 23/46/23 28/52/23
f 21/49/24 24/48/24 25/50/24
f 26/51/25 25/50/25 30/57/25
f 26/52/26 30/58/26 27/53/26
f 27/54/27 31/60/27 28/52/27
f 28/55/28 32/61/28 25/50/28
f 29/56/2 33/62/2 30/57/2
f 30/58/1 34/64/1 31/59/1
f 31/60/4 35/66/4 32/58/4
f 32/61/3 36/68/3 29/56/3
f 34/63/6 33/62/6 38/71/6
f 35/65/5 34/64/5 39/73/5
f 36/67/8 35/66/8 40/75/8
f 36/68/7 40/76/7 33/69/7
f 37/70/10 41/78/10 38/71/10
f 39/73/9 38/72/9 43/81/9
f 39/74/12 43/82/12 40/75/12
f 40/76/11 44/84/11 37/77/11
f 41/121/14 45/86/14 42/88/14
f 42/122/13 46/89/13 43/91/13
f 43/123/16 47/92/16 44/94/16
f 44/124/15 48/95/15 41/97/15
f 46/87/18 45/86/18 50/99/18
f 46/89/17 50/100/17 47/90/17
f 48/93/20 47/92/20 52/103/20
f 45/96/19 48/95/19 49/105/19
f 49/98/22 53/106/22 50/99/22
f 50/100/21 54/108/21 51/101/21
f 51/102/24 55/110/24 52/103/24
f 52/104/23 56/112/23 49/105/23
f 53/106/26 1/114/26 54/107/26
f 55/109/25 54/108/25 3/115/25
f 55/110/28 3/7/28 56/111/28
f 56/112/27 4/11/27 53/113/27
